<?xml version="1.0" encoding="utf-8"?>
<!-- Generator: Adobe Illustrator 17.1.0, SVG Export Plug-In . SVG Version: 6.00 Build 0)  -->
<!DOCTYPE svg PUBLIC "-//W3C//DTD SVG 1.1//EN" "http://www.w3.org/Graphics/SVG/1.1/DTD/svg11.dtd">
<svg version="1.1" id="Layer_1" xmlns="http://www.w3.org/2000/svg" xmlns:xlink="http://www.w3.org/1999/xlink" x="0px" y="0px"
	 viewBox="0 0 612 792" enable-background="new 0 0 612 792" xml:space="preserve">
<path fill-rule="evenodd" clip-rule="evenodd" fill="#63A6BB" d="M421.2,401.6c0,115-93.2,208.2-208.2,208.2S4.7,516.6,4.7,401.6
	s93.2-208.2,208.2-208.2S421.2,286.6,421.2,401.6z M212.9,268.1c-74.2,0-134.4,60.2-134.4,134.4s60.2,134.4,134.4,134.4
	s134.4-60.2,134.4-134.4S287.1,268.1,212.9,268.1z"/>
<path fill-rule="evenodd" clip-rule="evenodd" fill="#ABD377" d="M591.9,572.3c0,115-93.2,208.2-208.2,208.2
	s-208.2-93.2-208.2-208.2S268.6,364,383.6,364S591.9,457.3,591.9,572.3z M383.6,438.8c-74.2,0-134.4,60.2-134.4,134.4
	s60.2,134.4,134.4,134.4S518,647.4,518,573.2S457.8,438.8,383.6,438.8z"/>
<rect x="518" y="182.2" fill-rule="evenodd" clip-rule="evenodd" fill="#ABD377" width="73.9" height="388.8"/>
<path fill="#63A6BB" d="M418.2,367c-11.3-1.9-22.8-2.9-34.6-2.9c-14,0-27.6,1.4-40.8,4c2.9,11,4.5,22.5,4.5,34.4
	c0,15.3-2.6,29.9-7.3,43.6c13.7-4.7,28.3-7.3,43.6-7.3c11.5,0,22.7,1.5,33.4,4.2c2.7-13.4,4.1-27.2,4.1-41.4
	C421.2,389.8,420.1,378.2,418.2,367z"/>
<rect x="347.3" y="11.5" fill-rule="evenodd" clip-rule="evenodd" fill="#63A6BB" width="73.9" height="388.8"/>
<rect id="_x3C_Slice_x3E_" x="4.7" y="11.5" fill="none" width="602.6" height="769"/>
</svg>
