<?xml version="1.0" encoding="utf-8"?>
<!-- Generator: Adobe Illustrator 16.0.4, SVG Export Plug-In . SVG Version: 6.00 Build 0)  -->
<!DOCTYPE svg PUBLIC "-//W3C//DTD SVG 1.1//EN" "http://www.w3.org/Graphics/SVG/1.1/DTD/svg11.dtd">
<svg version="1.1" id="Layer_2" xmlns="http://www.w3.org/2000/svg" xmlns:xlink="http://www.w3.org/1999/xlink" x="0px" y="0px"
	 width="126px" height="126px" viewBox="0 0 126 126" enable-background="new 0 0 126 126" xml:space="preserve">
<path fill="#36BAE4" d="M109.211,35.534c-0.535-0.767-1.397-1.241-2.332-1.281l-58-2.5c-1.664-0.073-3.055,1.212-3.126,2.868
	c-0.071,1.656,1.212,3.055,2.868,3.126l54.073,2.331L92.062,73.25H44.749l-8.548-46.542c-0.188-1.02-0.888-1.871-1.854-2.25l-14-5.5
	c-1.543-0.604-3.284,0.154-3.89,1.695c-0.605,1.542,0.153,3.284,1.695,3.89l12.448,4.89l8.699,47.359
	c0.262,1.424,1.503,2.458,2.951,2.458h1.443l-3.295,9.153c-0.276,0.766-0.162,1.618,0.307,2.284s1.231,1.062,2.045,1.062h2.311
	c-1.432,1.594-2.311,3.693-2.311,6c0,4.963,4.038,9,9,9s9-4.037,9-9c0-2.307-0.879-4.406-2.311-6h19.622
	c-1.432,1.594-2.311,3.693-2.311,6c0,4.963,4.037,9,9,9s9-4.037,9-9c0-2.307-0.879-4.406-2.311-6h2.811c1.381,0,2.5-1.119,2.5-2.5
	s-1.119-2.5-2.5-2.5H46.307l2.7-7.5H94.25c1.304,0,2.459-0.843,2.856-2.084l12.5-39C109.893,37.275,109.746,36.302,109.211,35.534z
	 M51.75,101.75c-2.206,0-4-1.794-4-4s1.794-4,4-4s4,1.794,4,4S53.956,101.75,51.75,101.75z M84.75,101.75c-2.206,0-4-1.794-4-4
	s1.794-4,4-4s4,1.794,4,4S86.956,101.75,84.75,101.75z"/>
</svg>
