<?xml version="1.0" encoding="utf-8"?>
<!-- Generator: Adobe Illustrator 17.1.0, SVG Export Plug-In . SVG Version: 6.00 Build 0)  -->
<!DOCTYPE svg PUBLIC "-//W3C//DTD SVG 1.1//EN" "http://www.w3.org/Graphics/SVG/1.1/DTD/svg11.dtd">
<svg version="1.1" id="Layer_x5F_1_x5F_1" xmlns="http://www.w3.org/2000/svg" xmlns:xlink="http://www.w3.org/1999/xlink" x="0px"
	 y="0px" viewBox="0 0 612 792" enable-background="new 0 0 612 792" xml:space="preserve">
<linearGradient id="SVGID_1_" gradientUnits="userSpaceOnUse" x1="306.53" y1="138" x2="306.53" y2="605.0268">
	<stop  offset="0" style="stop-color:#C5F3AD"/>
	<stop  offset="1" style="stop-color:#91E5EF"/>
</linearGradient>
<path fill-rule="evenodd" clip-rule="evenodd" fill="url(#SVGID_1_)" d="M301.4,391.1c-13.4,4.6-24.1,15.2-28.7,28.7
	C286.1,415.1,296.8,404.5,301.4,391.1z M257.7,329.9c-25.5,0-46.2,20.7-46.2,46.2c0,21.5,14.7,39.6,34.6,44.7
	c5.5-28.5,27.8-50.9,56.2-56.5C297.1,344.5,279.1,329.9,257.7,329.9z M327.9,390c-5.7,28.2-28,50.4-56.3,55.9
	c5,20.1,23.2,34.9,44.8,34.9c25.5,0,46.2-20.7,46.2-46.2C362.5,413.2,347.8,395.1,327.9,390z M387.9,434l0,0.5
	c0,39.5-32,71.5-71.5,71.5c-35.5,0-64.9-25.8-70.5-59.6c-33.8-5.7-59.6-35.1-59.6-70.5c0-39.5,32-71.5,71.5-71.5
	c17.6,0,33.7,6.4,46.1,16.9v-79.4h25.4v122.3c12.5,2.3,23.9,7.8,33.3,15.7v-79.4h25.4L387.9,434z M306.5,84.2
	c-161.3,0-292,130.7-292,292c0,161.3,130.7,292,292,292c161.3,0,292-130.7,292-292C598.5,214.9,467.8,84.2,306.5,84.2z"/>
</svg>
